HIERARCHY
ROOT Hips
{
	OFFSET	0	0	0
	CHANNELS 6  Xposition Yposition Zposition Xrotation Yrotation Zrotation
	JOINT Spine
	{
		OFFSET	0	0.0328084	0
		CHANNELS 6  Xrotation Yrotation Zrotation Xposition Yposition Zposition
		JOINT Spine1
		{
			OFFSET	0	0.334509	-0.0597337
			CHANNELS 6  Xrotation Yrotation Zrotation Xposition Yposition Zposition
			JOINT Spine2
			{
				OFFSET	0	0.25357	0.0271788
				CHANNELS 6  Xrotation Yrotation Zrotation Xposition Yposition Zposition
				JOINT Spine3
				{
					OFFSET	0	0.303447	0.0901979
					CHANNELS 6  Xrotation Yrotation Zrotation Xposition Yposition Zposition
					JOINT Spine4
					{
						OFFSET	0	0.449197	-0.0459949
						CHANNELS 3  Xrotation Yrotation Zrotation
						JOINT Neck
						{
							OFFSET	0	0.214444	-0.15023
							CHANNELS 3  Xrotation Yrotation Zrotation
							JOINT Head
							{
								OFFSET	0	0.257452	-0.0770565
								CHANNELS 3  Xrotation Yrotation Zrotation
								End Site
								{
									OFFSET	0	0.537006	-0.0259842
								}
							}
						}
					}
					JOINT LeftShoulder
					{
						OFFSET	-0.129025	0.545966	-0.257452
						CHANNELS 3  Xrotation Yrotation Zrotation
						JOINT LeftArm
						{
							OFFSET	-0.3343	-0.0770565	0.0988599
							CHANNELS 3  Xrotation Yrotation Zrotation
							JOINT LeftForeArm
							{
								OFFSET	-0.912438	-0.0416452	0.0651288
								CHANNELS 3  Xrotation Yrotation Zrotation
								JOINT LeftHand
								{
									OFFSET	-0.767321	-0.0530262	0.0547706
									CHANNELS 3  Xrotation Yrotation Zrotation
									End Site
									{
										OFFSET	-0.280034	-0.0193519	0.0199872
									}
								}
							}
						}
					}
					JOINT RightShoulder
					{
						OFFSET	0.129025	0.545966	-0.257452
						CHANNELS 3  Xrotation Yrotation Zrotation
						JOINT RightArm
						{
							OFFSET	0.3343	-0.0770565	0.0988599
							CHANNELS 3  Xrotation Yrotation Zrotation
							JOINT RightForeArm
							{
								OFFSET	0.912438	-0.0416452	0.0651288
								CHANNELS 3  Xrotation Yrotation Zrotation
								JOINT RightHand
								{
									OFFSET	0.767321	-0.0530262	0.0547706
									CHANNELS 3  Xrotation Yrotation Zrotation
									End Site
									{
										OFFSET	0.280034	-0.0193519	0.0199872
									}
								}
							}
						}
					}
				}
			}
		}
	}
	JOINT LeftUpLeg
	{
		OFFSET	-0.320471	-0.263949	-0.0588377
		CHANNELS 3  Xrotation Yrotation Zrotation
		JOINT LeftLeg
		{
			OFFSET	0.00548563	-1.32569	-0.0207234
			CHANNELS 3  Xrotation Yrotation Zrotation
			JOINT LeftFoot
			{
				OFFSET	-0.071207	-1.31257	0.112881
				CHANNELS 3  Xrotation Yrotation Zrotation
				JOINT LeftToeBase
				{
					OFFSET	0	-0.111971	-0.297395
					CHANNELS 3  Xrotation Yrotation Zrotation
					End Site
					{
						OFFSET	0	-0.0447883	-0.179154
					}
				}
			}
		}
	}
	JOINT RightUpLeg
	{
		OFFSET	0.320471	-0.263949	-0.0588377
		CHANNELS 3  Xrotation Yrotation Zrotation
		JOINT RightLeg
		{
			OFFSET	-0.00548563	-1.32569	-0.0207234
			CHANNELS 3  Xrotation Yrotation Zrotation
			JOINT RightFoot
			{
				OFFSET	0.071207	-1.31257	0.112881
				CHANNELS 3  Xrotation Yrotation Zrotation
				JOINT RightToeBase
				{
					OFFSET	0	-0.111971	-0.297395
					CHANNELS 3  Xrotation Yrotation Zrotation
					End Site
					{
						OFFSET	0	-0.0447883	-0.179154
					}
				}
			}
		}
	}
}
MOTION
Frames: 14
Frame Time: 0.02
1.1457 2.90145 -7.12345 11.04325 170.505 -13.9609 6.42205 -5.9500453E-6 3.3564498 0.0 0.0162015 0.0 3.8528001 -5.1749987E-5 5.5941 0.0 0.0162015 0.0 5.41335 -1.4999975E-4 5.5941 0.0 0.0162015 0.0 172.73999 0.0 3.3549957 0.0 0.0162015 0.0 170.35501 -0.29499817 -1.0800018 164.3 7.834999 167.10501 175.16 8.219994 175.87 93.03394 -99.0545 96.639 152.365 -17.690002 42.885 92.15939 -74.6965 88.72305 0.0 -0.9678998 19.8135 95.267 90.4835 -101.782 88.8671 -52.9145 40.748 113.0285 125.66 -114.113 0.0 -5.55065 -18.817001 54.311005 51.077 -34.016502 156.39 -150.45999 -18.0 0.69464004 0.075889 12.393 94.195 90.0 -9.0 114.540504 97.451996 106.176994 138.675 -6.6100006 81.0 96.496506 90.03197 81.022545 163.245 180.0 -180.0
1.19155 2.87745 -7.0857 11.07905 170.905 -12.29155 6.6221 -0.004890125 2.78895 0.0 0.016185 0.0 3.97545 -0.00959446 4.6479 0.0 0.016185 0.0 5.5262 -0.028783899 4.6479 0.0 0.016185 0.0 172.70999 0.05000305 2.790001 0.0 0.016185 0.0 170.505 -0.23999786 -0.8999939 164.4 -172.245 167.45001 175.225 8.200005 175.97 3.501 -12.997601 7.5180497 157.03 160.36 40.516502 91.699 -78.0559 88.449104 0.0 -0.26814985 18.818352 95.2915 89.681 -101.8305 101.225 -54.4835 30.330502 113.622 126.94501 -114.695 0.0 -5.3414497 -18.32005 81.115005 50.6655 -61.3155 156.64 -150.98 -18.0 1.06993 0.013533499 11.98775 93.84 90.0 -9.0 115.269 96.236496 107.089 138.13501 -6.2299957 81.0 95.624 89.96033 81.261505 163.535 180.0 -180.0
1.2383499 2.8568501 -7.0454 10.9972 171.85 -10.297501 6.789 -0.00241735 2.21695 0.0 0.0160725 0.0 4.075375 -0.0047186995 3.695 0.0 0.0160725 0.0 5.6001997 -0.014157999 3.695 0.0 0.0160725 0.0 172.72 0.0 2.2200012 0.0 0.0160725 0.0 170.715 -0.1949997 -0.6800003 164.66501 -172.435 167.72 175.31 7.904999 176.05 3.4694 -12.917251 7.3708 161.85 158.655 37.361004 90.99675 -81.41505 88.52775 0.0 0.62535 17.6914 95.33501 88.916 -101.932 108.063 -57.190002 24.641499 115.5605 128.075 -116.7885 0.0 -5.0525503 -17.7311 81.5985 50.2715 -61.6615 156.73999 -152.11499 81.0 1.56126 -0.034609 11.5266 93.6335 90.0 -9.0 116.012 94.415 107.8235 137.595 -5.9799957 81.0 95.054 89.90588 81.403 163.83499 180.0 -180.0
1.2806499 2.841 -6.994 11.136499 -6.2999954 -8.477501 6.92585 0.00748995 1.7182001 0.0 0.0158655 0.0 4.155975 0.01491675 2.8636 0.0 0.0158655 0.0 5.6273003 0.044763498 2.8636 0.0 0.0158655 0.0 172.81 179.985 1.715004 0.0 0.0158655 0.0 171.09 -0.14500427 -0.5750046 165.1 -172.75 168.16 175.475 7.375 176.215 3.2836 -12.9292 6.891 167.48999 157.765 33.565002 90.45825 -84.009705 88.770004 0.0 1.20415 16.2307 95.5715 89.248 -102.449 112.991005 -60.5625 20.108501 118.9605 129.22 -120.269 0.0 -4.3357997 -17.049 81.826 49.1605 -61.035 156.99 -153.745 -18.0 2.33139 -0.031996198 11.02975 93.5535 90.0 -9.0 116.444 92.19 108.677 136.54999 -5.619995 81.0 94.3545 89.80134 81.56025 164.0 180.0 -180.0
1.330505 2.82275 -6.94995 11.19725 -4.2800064 -6.427 6.915185 0.0090945 1.23 0.0 0.0155255 0.0 4.1499453 0.0181292 2.0496502 0.0 0.0155255 0.0 5.54065 0.054387998 2.0500002 0.0 0.0155255 0.0 173.06 179.985 1.2300034 0.0 0.0155255 0.0 171.655 -0.1000061 -0.40000153 165.91 -172.995 168.61 175.73 6.8150024 176.3 2.8024502 -12.738125 5.80095 82.732445 73.38215 -60.292 90.0208 -85.627304 88.8861 0.0 1.53695 14.7904 95.7105 89.0255 -102.7585 115.75 -63.961 17.8195 123.0255 130.5445 -124.6985 0.0 -3.307675 -16.372551 81.5475 48.224503 -59.5485 156.65 -155.39 -18.0 3.58631 -0.1074225 10.60785 93.643005 90.0 -9.0 116.705 89.7725 109.3185 134.905 -5.494995 81.0 93.631996 89.78632 81.66025 164.18 180.0 -180.0
1.387185 2.80375 -6.904 10.93505 -1.9049988 -4.7409997 6.8745103 0.01428 0.80725 0.0 0.015172999 0.0 4.12371 0.0284275 1.3454001 0.0 0.015172999 0.0 5.42375 0.08529051 1.3454499 0.0 0.015172999 0.0 173.335 179.98 0.8450012 0.0 0.015172999 0.0 172.25 -0.06500244 -0.30000305 166.73999 -173.06 169.035 176.01001 6.310005 176.51999 2.0297499 -11.9853 4.11935 87.974 74.52615 -64.756 89.6035 -86.292 88.5464 0.0 1.6450001 13.1985 95.7565 88.9235 -102.8505 117.2505 -67.4785 17.191002 128.78 131.99449 -130.7835 0.0 -2.192945 -15.6064005 80.66 47.516 -57.873497 155.81 -156.95001 -18.0 4.655675 -0.18693 10.2647505 93.7385 90.0 -9.0 116.765 87.458496 110.177 132.57 -4.9300003 81.0 92.8065 89.8915 81.914505 164.265 180.0 -180.0
1.4403 2.7915502 -6.85225 10.73005 -0.19500732 -3.1564999 6.902365 0.004598845 0.5012001 0.0 0.0148695 0.0 4.14057 0.0091519 0.83539987 0.0 0.0148695 0.0 5.3947496 0.027466 0.83539987 0.0 0.0148695 0.0 173.465 -0.0450058 0.5 0.0 0.0148695 0.0 172.57999 -0.4449997 -0.16500092 167.17 -173.39 169.235 176.17 5.904999 176.61499 1.5427 -10.89345 3.0184 93.022 75.6811 -68.7655 89.225 -85.8665 88.63685 0.0 1.5416999 11.548401 5.8842 27.129002 -13.12152 118.093 -70.831505 17.5475 136.52051 133.262 -139.085 0.0 -0.69001 -15.0339 78.3585 46.5665 -55.168503 154.58499 -158.475 -18.0 5.56063 -0.18061501 9.9775505 93.862 90.0 -9.0 116.7445 84.7845 110.935 130.435 -4.255005 180.0 91.984604 89.90986 82.16775 164.29999 180.0 -180.0
1.4972501 2.7988 -6.80895 10.4124 1.4850006 -1.7200003 6.9564853 -0.00478485 0.28104997 0.0 0.014673 0.0 4.176855 -0.0095392 0.46845007 0.0 0.014673 0.0 5.41252 -0.028617501 0.46845007 0.0 0.014673 0.0 173.505 -179.99 0.32499695 0.0 0.014673 0.0 172.725 -0.040000916 -0.084999084 167.375 -173.53 169.315 176.25 5.739998 176.665 1.02997 -9.344501 1.82255 97.459496 76.53415 -71.848 88.909294 -84.566 88.402145 0.0 1.2839499 10.0203495 5.888 27.0375 -13.12405 118.831 -73.406 18.023998 147.48 134.442 -150.515 0.0 1.0932615 -14.325399 74.4335 45.7665 -51.099503 153.66 -159.8 -18.0 6.23113 -0.122889996 9.72945 93.933495 90.0 -9.0 117.173996 81.178894 111.6615 128.65 -3.1299973 81.0 91.127 -90.019905 82.555695 164.3 180.0 -180.0
1.54932 2.8177 -6.7593 10.279901 3.4950027 -0.54850006 97.0725 -90.00633 90.113945 0.0 0.014477 0.0 94.2443 -90.01759 90.1883 0.0 0.014477 0.0 5.4892697 -0.079315 0.19105005 0.0 0.014477 0.0 173.41501 -179.98001 0.114997864 0.0 0.014477 0.0 172.73 -0.039993286 -0.034996033 167.295 -173.64 169.41501 176.245 5.779999 176.695 90.5731 -68.979996 90.7015 101.4425 77.501595 -74.3825 88.5965 -83.5445 88.14065 0.0 1.2154 8.63695 5.8112497 26.4895 -12.932984 119.179 -75.4025 18.891499 157.865 136.067 -161.045 0.0 3.1223001 -13.460661 70.78 45.1885 -47.316 153.6 -160.86499 -18.0 6.82635 -0.0892385 9.4693 93.976006 90.0 -9.0 117.675 77.547005 111.8215 127.225 -1.7600021 81.0 90.31375 89.96937 83.1174 164.1 180.0 -180.0
1.612815 2.8379998 -6.7203503 10.1783 5.25 0.75670004 97.14349 -90.01652 89.98885 0.0 0.014371499 0.0 94.28525 -90.037926 89.98645 0.0 0.014371499 0.0 5.583945 -0.13075624 -0.01244998 0.0 0.014371499 0.0 173.28 -179.97 -0.009994507 0.0 0.014371499 0.0 172.41 -0.039993286 0.010002136 166.875 -173.62 169.29001 176.11499 6.044998 176.63 90.131195 -67.365 89.6705 15.118051 21.5385 13.618 88.25449 -82.7075 88.03695 0.0 1.36025 7.4752502 5.756575 26.017 -12.7927 120.125 -77.0175 19.948502 165.16 137.655 -168.4 0.0 5.26655 -12.36405 66.854996 44.8265 -43.487 154.11499 -161.57 -18.0 7.389665 -0.088188 9.2527 94.031494 90.0 -9.0 27.551899 5.14 21.369148 126.740005 0.58000183 81.0 89.692795 89.95673 83.87672 164.32501 180.0 -180.0
1.67224 2.8597999 -6.68815 9.96815 6.8150024 1.6350002 96.988 -90.01886 89.9241 0.0 0.014291 0.0 94.2112 -90.04261 89.87855 0.0 0.014291 0.0 5.51689 -0.149648 -0.118750095 0.0 0.014291 0.0 173.3 -179.97 -0.07499695 0.0 0.014291 0.0 172.33 -0.039993286 0.02999878 166.79501 -173.35501 169.285 176.095 -173.45499 176.555 90.01585 -65.795 89.18635 19.0585 20.868 11.455 88.025505 -81.803 87.61951 0.0 1.27775 6.4886 5.51517 25.8545 -12.237515 121.0825 -78.416504 21.386002 169.9 139.82 -173.20001 0.0 7.2257 -11.0983 63.1185 44.651497 -39.844498 154.505 -161.79999 -18.0 8.032115 -0.0512485 9.0659 94.132 90.0 -9.0 26.79485 2.8780003 20.4576 127.515 2.6149979 -18.0 88.9811 -89.87726 -95.298 164.295 180.0 -180.0
1.74545 2.88795 -6.65515 9.69155 8.735001 2.5675502 96.833 89.97747 89.84615 0.0 0.0143025 0.0 94.099304 89.96001 89.745255 0.0 0.0143025 0.0 5.47003 -0.1017484 -0.2505002 0.0 0.0143025 0.0 173.18 0.01499939 -0.15000153 0.0 0.0143025 0.0 171.84 -0.039993286 0.09000397 166.1 -173.185 169.09 175.87 -172.97 176.43 89.934 -64.7205 88.8654 22.3267 20.2875 10.0205 87.974 -81.7245 87.53615 0.0 1.42395 5.61985 5.1503916 25.713501 -11.422865 121.879 -79.468 22.579998 172.65 141.78 -176.04999 0.0 9.071 -9.5942 59.517998 44.693497 -36.1235 154.95 -161.925 -18.0 8.635321 0.0504995 8.8742 94.2385 90.0 -9.0 25.417 0.63049984 18.985 129.45 4.590004 81.0 88.047 -89.8963 -94.448 164.26001 180.0 -180.0
1.811745 2.9171 -6.62415 9.3416 11.379997 3.2080002 96.633 89.99303 89.855896 0.0 0.014269499 0.0 93.9803 89.98605 89.76155 0.0 0.014269499 0.0 5.400321 0.0066795005 -0.23444986 0.0 0.014269499 0.0 173.08499 0.0 -0.13999939 0.0 0.014269499 0.0 171.4 -0.049995422 0.085006714 165.595 -172.98999 168.9 175.72 -172.45001 176.29999 89.8332 -64.625 88.6689 25.392502 20.045 8.959501 88.0665 -82.828995 87.6548 0.0 1.8301499 4.7392 94.6787 91.304504 -100.4115 122.309494 -80.608 24.184498 174.23 143.985 -177.6 0.0 10.657 -8.0893 54.7885 44.762 -31.074501 154.92499 -161.79001 -18.0 9.216949 0.0798585 8.73575 94.322495 90.0 -9.0 23.082 -1.5599995 17.3071 132.095 6.3849945 81.0 87.11305 89.98966 -93.589005 164.215 180.0 -180.0
1.8857651 2.9403 -6.58845 9.3736 14.025002 3.8955998 96.4645 89.99338 89.86935 0.0 0.01433715 0.0 93.8701 89.99175 89.78395 0.0 0.01433715 0.0 95.305 89.980255 89.78395 0.0 0.01433715 0.0 173.13501 0.0 -0.12999725 0.0 0.01433715 0.0 171.31 -0.049995422 0.085006714 165.54001 -172.91 169.22 175.695 -172.12 176.29999 89.688446 -64.630005 88.468254 28.511 19.7135 8.0485 88.295 -84.7735 88.1998 0.0 2.6468 4.0551 94.22665 91.306 -99.358 122.906006 -81.49345 26.0685 175.37 145.58 -178.695 0.0 12.18115 -6.5551996 49.060997 44.633 -25.253 155.01999 -161.365 81.0 9.850249 0.0961835 8.569349 94.394005 90.0 -9.0 20.501 -3.3145008 15.7317505 134.19 8.065002 81.0 85.59245 89.928505 -92.714 164.045 180.0 -180.0
